<?xml version="1.0" encoding="utf-8"?>
<!-- Generator: Adobe Illustrator 19.2.1, SVG Export Plug-In . SVG Version: 6.00 Build 0)  -->
<!DOCTYPE svg PUBLIC "-//W3C//DTD SVG 1.1//EN" "http://www.w3.org/Graphics/SVG/1.1/DTD/svg11.dtd">
<svg version="1.1" id="Layer_1" xmlns="http://www.w3.org/2000/svg" xmlns:xlink="http://www.w3.org/1999/xlink" x="0px" y="0px"
	 viewBox="0 0 151.6 50" style="enable-background:new 0 0 151.6 50;" xml:space="preserve">
<style type="text/css">
	.st0{fill:none;stroke:#FEF087;stroke-width:5;stroke-miterlimit:10;}
	.st1{enable-background:new    ;}
	.st2{fill:#FEF087;}
</style>
<polyline class="st0" points="30.5,9.7 15.7,24.5 31,39.9 "/>
<g class="st1">
	<path class="st2" d="M44,15.4c1.2,0,2.2,0.1,3,0.3c0.8,0.2,1.5,0.5,2,0.9s0.9,0.9,1.2,1.5c0.2,0.6,0.4,1.2,0.4,2
		c0,0.4-0.1,0.8-0.2,1.2c-0.1,0.4-0.3,0.7-0.6,1.1c-0.3,0.3-0.6,0.6-1,0.9s-0.9,0.5-1.4,0.7c2.4,0.5,3.7,1.9,3.7,4
		c0,0.8-0.1,1.5-0.4,2.1s-0.7,1.2-1.3,1.7c-0.6,0.5-1.2,0.8-2,1.1c-0.8,0.3-1.7,0.4-2.8,0.4h-6.7V15.4H44z M41.1,17.9v5.2h2.6
		c1.1,0,2-0.2,2.6-0.6c0.6-0.4,0.9-1.1,0.9-2c0-0.9-0.3-1.6-0.8-2s-1.3-0.6-2.5-0.6H41.1z M44.5,30.6c0.6,0,1.1-0.1,1.6-0.2
		c0.4-0.1,0.8-0.3,1-0.6c0.3-0.2,0.4-0.5,0.5-0.9c0.1-0.3,0.2-0.7,0.2-1c0-0.4-0.1-0.7-0.2-1c-0.1-0.3-0.3-0.6-0.6-0.8
		c-0.3-0.2-0.6-0.4-1-0.5c-0.4-0.1-0.9-0.2-1.5-0.2h-3.3v5.2H44.5z"/>
	<path class="st2" d="M69,33.2h-2.6c-0.3,0-0.5-0.1-0.7-0.2c-0.2-0.1-0.3-0.3-0.4-0.5L64,28.8h-7.4l-1.3,3.6
		c-0.1,0.2-0.2,0.4-0.4,0.5c-0.2,0.2-0.4,0.2-0.7,0.2h-2.6l7-17.8H62L69,33.2z M63.2,26.5L61,20.5c-0.1-0.3-0.2-0.6-0.3-0.9
		c-0.1-0.4-0.2-0.8-0.3-1.2c-0.1,0.4-0.2,0.8-0.3,1.2c-0.1,0.4-0.2,0.7-0.3,1l-2.2,5.9H63.2z"/>
	<path class="st2" d="M82.6,29c0.2,0,0.3,0.1,0.5,0.2l1.3,1.4c-0.7,0.9-1.6,1.6-2.7,2.1s-2.3,0.7-3.8,0.7c-1.3,0-2.5-0.2-3.6-0.7
		s-2-1.1-2.7-1.9c-0.7-0.8-1.3-1.8-1.7-2.9s-0.6-2.3-0.6-3.7c0-1.3,0.2-2.6,0.6-3.7c0.4-1.1,1-2.1,1.8-2.9c0.8-0.8,1.7-1.4,2.8-1.9
		c1.1-0.4,2.3-0.7,3.6-0.7c1.3,0,2.5,0.2,3.5,0.6c1,0.4,1.9,1,2.6,1.7L83,19c-0.1,0.1-0.2,0.2-0.3,0.3c-0.1,0.1-0.2,0.1-0.4,0.1
		c-0.1,0-0.3,0-0.4-0.1c-0.1-0.1-0.3-0.2-0.4-0.3s-0.3-0.2-0.5-0.3c-0.2-0.1-0.4-0.2-0.7-0.3c-0.3-0.1-0.6-0.2-0.9-0.3
		C79,18,78.6,18,78.1,18c-0.8,0-1.5,0.1-2.2,0.4c-0.7,0.3-1.2,0.7-1.7,1.2s-0.8,1.2-1.1,2s-0.4,1.7-0.4,2.7c0,1,0.1,1.9,0.4,2.7
		c0.3,0.8,0.7,1.4,1.2,2c0.5,0.5,1.1,0.9,1.7,1.2s1.4,0.4,2.1,0.4c0.5,0,0.9,0,1.2-0.1c0.4,0,0.7-0.1,1-0.2c0.3-0.1,0.6-0.2,0.9-0.4
		c0.3-0.2,0.5-0.4,0.8-0.6c0.1-0.1,0.2-0.1,0.3-0.2C82.4,29,82.5,29,82.6,29z"/>
	<path class="st2" d="M90,22.8h0.8c0.3,0,0.6,0,0.8-0.1c0.2-0.1,0.4-0.2,0.5-0.4l4.9-6.2c0.2-0.3,0.4-0.4,0.6-0.5
		c0.2-0.1,0.5-0.2,0.9-0.2h2.9l-6,7.4c-0.4,0.5-0.7,0.8-1.1,1c0.3,0.1,0.5,0.2,0.7,0.4s0.4,0.4,0.6,0.7l6.2,8.3h-2.9
		c-0.4,0-0.7-0.1-0.9-0.2c-0.2-0.1-0.4-0.3-0.5-0.5l-5-6.6c-0.2-0.2-0.3-0.4-0.5-0.5c-0.2-0.1-0.5-0.1-0.9-0.1h-1v7.8h-3.3V15.4H90
		V22.8z"/>
</g>
</svg>
