<?xml version="1.0" encoding="utf-8"?>
<!-- Generator: Adobe Illustrator 19.2.1, SVG Export Plug-In . SVG Version: 6.00 Build 0)  -->
<!DOCTYPE svg PUBLIC "-//W3C//DTD SVG 1.1//EN" "http://www.w3.org/Graphics/SVG/1.1/DTD/svg11.dtd">
<svg version="1.1" id="Layer_1" xmlns="http://www.w3.org/2000/svg" xmlns:xlink="http://www.w3.org/1999/xlink" x="0px" y="0px"
	 viewBox="0 0 300 70" style="enable-background:new 0 0 300 70;" xml:space="preserve">
<style type="text/css">
	.st0{fill:#17E3EC;}
</style>
<path class="st0" d="M193.4,15.5c0.2,0,0.4,0,0.6,0c4.1,0,8.1,0,12.2,0c0.4,0,0.7,0.1,0.9,0.5c2.5,4.1,5,8.1,7.4,12.2
	c0.1,0.2,0.2,0.4,0.4,0.6c0.1-0.2,0.2-0.3,0.3-0.4c2.5-4.1,5-8.1,7.4-12.2c0.1-0.1,0.1-0.2,0.2-0.3c0.1-0.3,0.4-0.4,0.7-0.4
	c2.1,0,4.3,0,6.4,0c1.9,0,3.8,0,5.8,0c0.2,0,0.4,0,0.6,0c0.1,0.1,0.1,0.1,0.1,0.1l0,0c0,0.1,0,0.2,0,0.4c0,12.5,0,25,0,37.5v0.1
	c-0.4,0.1-12.1,0.1-12.7,0c0-0.2,0-0.5,0-0.8c0-5.7,0-11.3,0-17c0-0.2,0-0.4,0-0.6h-0.1c-0.1,0.2-0.2,0.3-0.3,0.5
	c-2.6,4-5.2,8.1-7.8,12.1c-0.5,0.7-0.6,0.7-1,0c-2.6-4.1-5.3-8.1-7.9-12.2c-0.1-0.1-0.2-0.3-0.4-0.5c0,0.3,0,0.5,0,0.7
	c0,5.7,0,11.4,0,17.1c0,0.3,0,0.5,0,0.8c-4.2,0-8.4,0-12.5,0C193.3,53.4,193.3,16.3,193.4,15.5z"/>
<path class="st0" d="M114.5,53.8c0-0.2-0.1-0.4-0.1-0.6c-0.1-6.3,0-37.1,0.1-37.6c0.1,0,0.3,0,0.4,0c5.3,0,10.5,0,15.8,0
	c3.5,0.1,7,0.7,10.2,2c2.8,1.1,5.3,2.8,7.2,5.2c1.9,2.3,2.9,5,3.4,7.9c0.3,1.5,0.4,3,0.3,4.6c-0.1,4-1.2,7.6-3.6,10.8
	c-2,2.6-4.5,4.4-7.5,5.7c-2.2,0.9-4.5,1.5-6.9,1.8c-1.8,0.2-3.6,0.3-5.4,0.3c-4.4,0-8.8,0-13.3,0C115,53.8,114.8,53.8,114.5,53.8z
	 M127.4,42.5c0.1,0,0.2,0.1,0.3,0.1c1.4,0,2.8,0.1,4.3-0.1c1.1-0.2,2.2-0.4,3.2-1c1.8-0.9,3-2.3,3.5-4.3c0.4-1.7,0.4-3.3,0-5
	c-0.5-1.8-1.6-3.2-3.2-4.1c-1-0.5-2.1-0.8-3.2-1c-1.5-0.3-3-0.2-4.5-0.2c-0.1,0-0.2,0-0.3,0.1C127.4,32.1,127.4,37.3,127.4,42.5z"/>
<path class="st0" d="M97.8,20.1c-2.1,2.9-4.2,5.8-6.3,8.7c-0.2-0.1-0.3-0.2-0.5-0.3c-2.6-1.8-5.4-2.9-8.5-3.3
	c-1-0.1-2.1-0.1-3.2-0.1c-0.4,0-0.8,0.1-1.2,0.3c-0.5,0.2-0.8,0.6-0.9,1.1c0,0.6,0.2,1,0.7,1.2c0.6,0.4,1.4,0.6,2.1,0.8
	c1.5,0.3,3.1,0.6,4.6,1c2.5,0.5,4.9,1.2,7.3,2.3c1.7,0.8,3.3,1.8,4.5,3.2c1.4,1.6,2.1,3.5,2.2,5.6c0.1,1.6,0,3.2-0.5,4.7
	c-0.9,2.9-2.7,5-5.2,6.5c-1.9,1.2-4,1.9-6.3,2.3c-2.1,0.4-4.3,0.5-6.5,0.4c-4-0.2-7.9-0.9-11.6-2.4c-2.2-0.9-4.2-2.1-6-3.6
	c-0.1-0.1-0.3-0.3-0.4-0.4c0.2-0.4,6.4-7.9,6.9-8.2c0.2,0.1,0.3,0.2,0.5,0.4c2.8,2,5.9,3.3,9.3,3.8c1,0.1,2,0.2,3,0.3
	c0.7,0,1.5-0.1,2.2-0.2c0.3,0,0.6-0.2,0.8-0.3c0.8-0.4,0.8-1.6,0.1-2.1c-0.4-0.3-0.8-0.5-1.2-0.6c-1.3-0.4-2.5-0.7-3.8-1
	c-2.8-0.6-5.7-1.3-8.3-2.4c-1.8-0.7-3.4-1.7-4.8-3.1c-1.5-1.5-2.3-3.3-2.6-5.3c-0.4-3.1,0.2-6,2-8.6c1.5-2.1,3.5-3.5,5.8-4.5
	c1.7-0.7,3.5-1.1,5.4-1.3c4.2-0.4,8.3-0.1,12.4,1.1c2.6,0.8,5.1,2,7.3,3.6C97.4,19.8,97.6,20,97.8,20.1z"/>
<path class="st0" d="M192.1,53.8c-0.2,0-0.4,0-0.6,0c-4.3,0-8.5,0-12.8,0c-0.5,0-0.5,0-0.7-0.5c-0.5-1.4-1.1-2.7-1.6-4.1
	c-0.2-0.5-0.2-0.5-0.8-0.5c-4,0-8.1,0-12.1,0c-0.6,0-0.6,0-0.8,0.5c-0.5,1.4-1,2.7-1.6,4.1c-0.2,0.5-0.2,0.5-0.8,0.5
	c-4.2,0-8.4,0-12.5,0c-0.2,0-0.3,0-0.6,0c0.1-0.2,0.1-0.4,0.2-0.6c1.2-3,2.5-5.9,3.7-8.9c3.9-9.4,7.9-18.8,11.8-28.3
	c0.3-0.8,0.2-0.7,1.1-0.7c3.7,0,7.4,0,11.1,0c0.1,0,0.2,0,0.3,0c0.4,0,0.6,0.1,0.7,0.5c1.2,2.8,2.3,5.6,3.5,8.5
	c4,9.7,8.1,19.3,12.1,29C191.9,53.4,192,53.5,192.1,53.8z M172.9,39.5c-1.1-3-2.2-5.9-3.4-9c-1.1,3.1-2.3,6-3.4,9
	C168.4,39.5,170.6,39.5,172.9,39.5z"/>
<path class="st0" d="M99.3,33c0.6-0.1,1.1-0.2,1.6-0.4c0.8-0.2,1.5-0.5,2.1-1c0.9-0.6,1.5-1.5,1.7-2.6c0-0.3,0-0.5,0.1-0.8
	c-1.7,0-3.3,0-4.8,0c-0.1-0.5-0.1-12,0-12.6c0.4-0.1,11.8-0.2,12.7,0c0,0.1,0,0.3,0,0.4c0,3.5,0,6.9,0,10.4c0,1.9-0.4,3.7-1.2,5.4
	c-1.1,2.4-3,3.9-5.5,4.7c-1.4,0.5-2.8,0.7-4.2,0.9c-0.4,0-0.7,0.1-1.1,0.1c-0.2,0-0.4-0.1-0.4-0.3C100,35.8,99.7,34.5,99.3,33
	C99.2,33.2,99.3,33.1,99.3,33z"/>
</svg>
